#!OML:ASF H:\LiuWeirdWalks\Patient Classification 1\Patient 1\Session 1\male.ASF
:FULLY-SPECIFIED
:DEGREES
1168
root 0.101893 18.0619 18.1829 -1.33742 7.68345 -8.52234
lowerback 4.29808 0.444284 8.05605
upperback 1.12411 1.02111 4.52591
thorax -1.19339 0.500236 0.112576
lowerneck -19.2565 0.303212 4.80732
upperneck 22.4374 0.540163 -6.10959
head 10.3934 -0.077516 -2.91194
rclavicle 3.32964e-015 5.56597e-015
rhumerus -38.1941 -6.47728 -78.5053
rradius 30.5943
rwrist -8.047
rhand -18.5311 -4.20489
rfingers 7.12502
rthumb 7.75772 -34.0426
lclavicle 3.32964e-015 5.56597e-015
lhumerus -40.1566 -1.56935 87.3621
lradius 39.2202
lwrist 16.7567
lhand -14.4134 -1.72206
lfingers 7.12502
lthumb 11.7305 27.9295
rfemur 2.67019 -4.96063 35.5519
rtibia 16.3094
rfoot -10.375 -20.4221
rtoes -0.726826
lfemur -35.3934 0.43836 -7.80887
ltibia 39.5085
lfoot -10.9142 7.03145
ltoes -18.1789
1169
root 0.105852 18.0599 18.2206 -1.32128 7.6038 -8.55581
lowerback 4.25411 0.206545 7.73226
upperback 1.17122 0.681621 4.52903
thorax -1.14322 0.333858 0.311746
lowerneck -19.3214 0.730583 5.48691
upperneck 22.4055 1.01432 -6.45641
head 10.4298 0.155626 -3.08468
rclavicle 3.74212e-014 -3.81667e-014
rhumerus -37.812 -5.66641 -79.1524
rradius 30.3857
rwrist -7.90599
rhand -18.5313 -4.16617
rfingers 7.12502
rthumb 7.75758 -34.0039
lclavicle 3.74212e-014 -3.81667e-014
lhumerus -40.3009 -0.689327 86.7564
lradius 39.3272
lwrist 16.7466
lhand -14.444 -1.69924
lfingers 7.12502
lthumb 11.7009 27.954
rfemur 2.92513 -4.90727 35.5851
rtibia 16.0553
rfoot -10.3413 -20.3953
rtoes -0.776451
lfemur -35.2276 0.330648 -7.73872
ltibia 38.4277
lfoot -10.8899 7.22845
ltoes -18.2179
1170
root 0.110448 18.058 18.2586 -1.29748 7.53121 -8.58304
lowerback 4.21236 0.187339 7.62173
upperback 1.12627 0.649695 4.50625
thorax -1.16919 0.316526 0.350822
lowerneck -19.205 0.841289 5.66867
upperneck 22.391 1.14065 -6.54073
head 10.4129 0.220769 -3.12649
rclavicle 8.44835e-015 -4.45278e-014
rhumerus -37.7719 -5.36388 -79.4162
rradius 30.2644
rwrist -7.80342
rhand -18.5534 -4.12941
rfingers 7.12502
rthumb 7.73621 -33.9679
lclavicle 8.44835e-015 -4.45278e-014
lhumerus -40.5141 -0.412077 86.5217
lradius 39.3951
lwrist 16.7505
lhand -14.4666 -1.6974
lfingers 7.12502
lthumb 11.6792 27.9571
rfemur 3.17103 -4.87278 35.6064
rtibia 15.8064
rfoot -10.3138 -20.3579
rtoes -0.828494
lfemur -35.0561 0.203817 -7.67279
ltibia 37.3566
lfoot -10.8623 7.45613
ltoes -18.2724
1171
root 0.115288 18.056 18.2966 -1.26601 7.46119 -8.60748
lowerback 4.18149 0.321502 7.64181
upperback 1.0897 0.827999 4.48247
thorax -1.18031 0.404327 0.306327
lowerneck -19.265 0.757567 5.50068
upperneck 22.4526 1.05508 -6.46294
head 10.4392 0.175831 -3.08418
rclavicle 1.70458e-014 7.15625e-015
rhumerus -37.7949 -5.42256 -79.4111
rradius 30.1955
rwrist -7.74929
rhand -18.585 -4.10872
rfingers 7.12502
rthumb 7.70574 -33.9483
lclavicle 1.70458e-014 7.15625e-015
lhumerus -40.5883 -0.512446 86.5613
lradius 39.3998
lwrist 16.7422
lhand -14.4889 -1.70134
lfingers 7.12502
lthumb 11.6576 27.9543
rfemur 3.40557 -4.83582 35.6243
rtibia 15.5622
rfoot -10.2911 -20.3235
rtoes -0.876561
lfemur -34.8845 0.0604774 -7.60436
ltibia 36.3036
lfoot -10.8412 7.72072
ltoes -18.3181
1172
root 0.120437 18.0538 18.3345 -1.22558 7.40263 -8.61855
lowerback 4.15055 0.464134 7.6606
upperback 1.09596 1.01389 4.45344
thorax -1.14618 0.497892 0.257162
lowerneck -19.513 0.67091 5.30051
upperneck 22.56 0.963914 -6.3674
head 10.5177 0.125151 -3.03382
rclavicle -5.81445e-015 3.49861e-014
rhumerus -37.7226 -5.52382 -79.3965
rradius 30.1285
rwrist -7.69001
rhand -18.615 -4.09468
rfingers 7.12502
rthumb 7.67681 -33.9353
lclavicle -5.81445e-015 3.49861e-014
lhumerus -40.5363 -0.628897 86.6172
lradius 39.3767
lwrist 16.7377
lhand -14.5003 -1.71495
lfingers 7.12502
lthumb 11.6467 27.9414
rfemur 3.62966 -4.80795 35.6258
rtibia 15.3212
rfoot -10.2746 -20.2899
rtoes -0.913997
lfemur -34.7181 -0.103394 -7.5474
ltibia 35.2757
lfoot -10.8269 8.02165
ltoes -18.309
1173
root 0.12601 18.0515 18.373 -1.1812 7.34761 -8.637
lowerback 4.08717 0.675198 7.75805
upperback 1.11077 1.28945 4.41424
thorax -1.07788 0.637135 0.150863
lowerneck -19.7762 0.49576 4.96886
upperneck 22.678 0.771919 -6.19934
head 10.5959 0.0257111 -2.95006
rclavicle 7.65321e-015 -1.51076e-014
rhumerus -37.6932 -5.80708 -79.2709
rradius 30.0899
rwrist -7.62733
rhand -18.6471 -4.06224
rfingers 7.12502
rthumb 7.64575 -33.904
lclavicle 7.65321e-015 -1.51076e-014
lhumerus -40.4222 -0.928133 86.7796
lradius 39.3219
lwrist 16.7436
lhand -14.5074 -1.74828
lfingers 7.12502
lthumb 11.6398 27.9084
rfemur 3.85177 -4.7833 35.6334
rtibia 15.0786
rfoot -10.2621 -20.2567
rtoes -0.947971
lfemur -34.5552 -0.274122 -7.48118
ltibia 34.2821
lfoot -10.813 8.35687
ltoes -18.3064
